# xmcd
#
# Track frame offsets:
#	182
#	13237
#	22577
#	34915
#	46630
#	57782
#	73312
#	83502
#	94020
#	103655
#
# Disc length: 1524
#
# Revision: 3
# Processed by: cddbd v1.5.1PL0 Copyright (c) Steve Scherf et al.
# Submitted via: CDWizzard Release:4.14
# Normalized: r1:TDELIM( - ),TSWAP
#
DISCID=7005f20a
DTITLE=Several - Country Music Classics Volume XIX (1970-1975)
DYEAR=1900
DGENRE=
TTITLE0=The Statler Brothers - Do You Remember These
TTITLE1=Charley Pride - Kiss An Angel Good Mornin'
TTITLE2=Charlie Rich - The Most Beautiful Girl
TTITLE3=Sonny James - Bright Lights, Big City
TTITLE4=Conway Twitty - Hello Darlin'
TTITLE5=B.J. Thomas - (Hey Won't You Play) Another Somebody Done Somebody Wrong Song
TTITLE6=Eric Weissberg and Steve Mandell - Dueling Banjos
TTITLE7=Jerry Reed - When You're Hot, You're Hot
TTITLE8=Tom T. Hall - I Love
TTITLE9=Tanya Tucker - Would You Lay With Me (In A Field Of Stone)
EXTD=
EXTT0=
EXTT1=
EXTT2=
EXTT3=
EXTT4=
EXTT5=
EXTT6=
EXTT7=
EXTT8=
EXTT9=
PLAYORDER=
